<svg xmlns="http://www.w3.org/2000/svg" width="1922.689" height="581" viewBox="0 0 1922.689 581">
  <g id="graph-bg" transform="translate(1.768 -362)">
    <path id="Path_2" data-name="Path 2" d="M0,716.374l74.555-74.555L185.732,753l36.622-36.622L437.122,931.142,783.5,584.762,915.115,716.374,1252.75,378.739,1412.681,538.67l73.85-73.85,177,177L1919.153,386.2" fill="none" stroke="#e1e1e1" stroke-width="5"/>
    <g id="Group_1" data-name="Group 1">
      <g id="Ellipse_3" data-name="Ellipse 3" transform="translate(58 627)" fill="#f1f1f1" stroke="#c28dcd" stroke-width="7">
        <circle cx="17" cy="17" r="17" stroke="none"/>
        <circle cx="17" cy="17" r="13.5" fill="none"/>
      </g>
      <g id="Ellipse_4" data-name="Ellipse 4" transform="translate(168 733)" fill="#f1f1f1" stroke="#c28dcd" stroke-width="7">
        <circle cx="17" cy="17" r="17" stroke="none"/>
        <circle cx="17" cy="17" r="13.5" fill="none"/>
      </g>
      <g id="Ellipse_5" data-name="Ellipse 5" transform="translate(209 699)" fill="#f1f1f1" stroke="#c28dcd" stroke-width="7">
        <circle cx="17" cy="17" r="17" stroke="none"/>
        <circle cx="17" cy="17" r="13.5" fill="none"/>
      </g>
      <g id="Ellipse_6" data-name="Ellipse 6" transform="translate(420 909)" fill="#f1f1f1" stroke="#c28dcd" stroke-width="7">
        <circle cx="17" cy="17" r="17" stroke="none"/>
        <circle cx="17" cy="17" r="13.5" fill="none"/>
      </g>
      <g id="Ellipse_7" data-name="Ellipse 7" transform="translate(767 568)" fill="#f1f1f1" stroke="#c28dcd" stroke-width="7">
        <circle cx="17" cy="17" r="17" stroke="none"/>
        <circle cx="17" cy="17" r="13.5" fill="none"/>
      </g>
      <g id="Ellipse_8" data-name="Ellipse 8" transform="translate(898 699)" fill="#f1f1f1" stroke="#c28dcd" stroke-width="7">
        <circle cx="17" cy="17" r="17" stroke="none"/>
        <circle cx="17" cy="17" r="13.5" fill="none"/>
      </g>
      <g id="Ellipse_9" data-name="Ellipse 9" transform="translate(1235 362)" fill="#f1f1f1" stroke="#c28dcd" stroke-width="7">
        <circle cx="17" cy="17" r="17" stroke="none"/>
        <circle cx="17" cy="17" r="13.5" fill="none"/>
      </g>
      <g id="Ellipse_10" data-name="Ellipse 10" transform="translate(1395 523)" fill="#f1f1f1" stroke="#c28dcd" stroke-width="7">
        <circle cx="17" cy="17" r="17" stroke="none"/>
        <circle cx="17" cy="17" r="13.5" fill="none"/>
      </g>
      <g id="Ellipse_11" data-name="Ellipse 11" transform="translate(1470 447)" fill="#f1f1f1" stroke="#c28dcd" stroke-width="7">
        <circle cx="17" cy="17" r="17" stroke="none"/>
        <circle cx="17" cy="17" r="13.5" fill="none"/>
      </g>
      <g id="Ellipse_12" data-name="Ellipse 12" transform="translate(1647 621)" fill="#f1f1f1" stroke="#c28dcd" stroke-width="7">
        <circle cx="17" cy="17" r="17" stroke="none"/>
        <circle cx="17" cy="17" r="13.5" fill="none"/>
      </g>
    </g>
  </g>
</svg>
